<svg width="15" height="14" viewBox="0 0 15 14" fill="none" xmlns="http://www.w3.org/2000/svg">
<path d="M14.2408 12.6268L10.5571 9.00725C11.2499 8.071 11.6595 6.9195 11.6595 5.67583C11.6595 2.54625 9.06812 0 5.88244 0C2.69736 0 0.105957 2.54625 0.105957 5.67583C0.105957 8.806 2.69736 11.3517 5.88244 11.3517C7.08998 11.3517 8.21144 10.9859 9.13995 10.3612L12.8433 14L14.2408 12.6268ZM1.80031 5.67583C1.80031 3.46383 3.63181 1.66425 5.88304 1.66425C8.13426 1.66425 9.96576 3.46383 9.96576 5.67583C9.96576 7.88783 8.13426 9.68742 5.88304 9.68742C3.63122 9.68742 1.80031 7.88783 1.80031 5.67583Z" fill="white"/>
</svg>
